<?xml version="1.0" encoding="UTF-8" standalone="no"?>
<!-- Created with Inkscape (http://www.inkscape.org/) -->

<svg
   width="210mm"
   height="297mm"
   viewBox="0 0 210 297"
   version="1.1"
   id="svg5"
   inkscape:export-filename="instagram-star-logo.svg"
   inkscape:export-xdpi="95.271385"
   inkscape:export-ydpi="95.271385"
   inkscape:version="1.2.2 (b0a8486541, 2022-12-01)"
   sodipodi:docname="starlogos.svg"
   xmlns:inkscape="http://www.inkscape.org/namespaces/inkscape"
   xmlns:sodipodi="http://sodipodi.sourceforge.net/DTD/sodipodi-0.dtd"
   xmlns="http://www.w3.org/2000/svg"
   xmlns:svg="http://www.w3.org/2000/svg">
  <sodipodi:namedview
     id="namedview7"
     pagecolor="#ffffff"
     bordercolor="#000000"
     borderopacity="0.25"
     inkscape:showpageshadow="2"
     inkscape:pageopacity="0.0"
     inkscape:pagecheckerboard="0"
     inkscape:deskcolor="#d1d1d1"
     inkscape:document-units="mm"
     showgrid="false"
     inkscape:zoom="0.74653479"
     inkscape:cx="93.766561"
     inkscape:cy="668.42163"
     inkscape:window-width="1920"
     inkscape:window-height="1008"
     inkscape:window-x="0"
     inkscape:window-y="0"
     inkscape:window-maximized="1"
     inkscape:current-layer="layer1" />
  <defs
     id="defs2">
    <rect
       x="274.83646"
       y="534.34302"
       width="234.26459"
       height="76.799377"
       id="rect2433" />
  </defs>
  <g
     inkscape:label="Layer 1"
     inkscape:groupmode="layer"
     id="layer1">
    <path
       sodipodi:type="star"
       style="fill:#800080;fill-opacity:1;stroke-width:0.264583"
       id="path111"
       inkscape:flatsided="false"
       sodipodi:sides="10"
       sodipodi:cx="47.042377"
       sodipodi:cy="72.192276"
       sodipodi:r1="112.53441"
       sodipodi:r2="56.267204"
       sodipodi:arg1="0.75047944"
       sodipodi:arg2="1.0646387"
       inkscape:rounded="0"
       inkscape:randomized="0"
       d="M 129.34577,148.93956 74.321857,121.40435 68.516296,182.65885 40.185808,128.04016 -0.51548066,174.18366 8.6687362,113.34397 -51.381772,126.75123 -8.1909094,82.929235 -64.653383,58.479137 -3.9533167,48.413347 -35.26101,-4.5550071 19.762898,22.980202 l 5.805561,-61.2545 28.330488,54.618694 40.701289,-46.143508 -9.184217,60.839694 60.050511,-13.407265 -43.19087,43.822 56.46248,24.450098 -60.700068,10.06579 z"
       inkscape:transform-center-x="4.8807214"
       inkscape:transform-center-y="-3.3519659"
       transform="matrix(0.73551304,0,0,0.79100674,69.430823,98.154634)" />
    <path
       sodipodi:type="star"
       style="fill:#dc5ddc;fill-opacity:1;stroke-width:0.264583"
       id="path111-3"
       inkscape:flatsided="false"
       sodipodi:sides="10"
       sodipodi:cx="47.042377"
       sodipodi:cy="72.192276"
       sodipodi:r1="112.53441"
       sodipodi:r2="56.267204"
       sodipodi:arg1="0.75047944"
       sodipodi:arg2="1.0646387"
       inkscape:rounded="0"
       inkscape:randomized="0"
       d="M 129.34577,148.93956 74.321857,121.40435 68.516296,182.65885 40.185808,128.04016 -0.51548066,174.18366 8.6687362,113.34397 -51.381772,126.75123 -8.1909094,82.929235 -64.653383,58.479137 -3.9533167,48.413347 -35.26101,-4.5550071 19.762898,22.980202 l 5.805561,-61.2545 28.330488,54.618694 40.701289,-46.143508 -9.184217,60.839694 60.050511,-13.407265 -43.19087,43.822 56.46248,24.450098 -60.700068,10.06579 z"
       inkscape:transform-center-x="4.8807214"
       inkscape:transform-center-y="-3.3519659"
       transform="matrix(0.73551304,0,0,0.79100674,67.029205,94.84162)" />
    <text
       xml:space="preserve"
       transform="matrix(0.26458333,0,0,0.26458333,1.659742,3.7061856)"
       id="text2431"
       style="font-size:42.6667px;white-space:pre;shape-inside:url(#rect2433);display:inline;fill:#8d3a77;fill-opacity:1"><tspan
         x="274.83594"
         y="573.16512"
         id="tspan4418"><tspan
           style="font-weight:bold;-inkscape-font-specification:'sans-serif Bold'"
           id="tspan4416">Instagram</tspan></tspan></text>
  </g>
</svg>
